<?xml version="1.0" encoding="UTF-8"?>
<svg id="Layer_1" xmlns="http://www.w3.org/2000/svg" version="1.1" viewBox="0 0 250 250">
  <!-- Generator: Adobe Illustrator 29.3.0, SVG Export Plug-In . SVG Version: 2.1.0 Build 146)  -->
  <defs>
    <style>
      .st0 {
        fill: #333;
      }
    </style>
  </defs>
  <path class="st0" d="M242.46,38.32H6.99c-4.16,0-7.54-3.37-7.54-7.54s3.37-7.54,7.54-7.54h235.48c4.16,0,7.54,3.37,7.54,7.54s-3.37,7.54-7.54,7.54Z"/>
  <path class="st0" d="M242.46,101.12H6.99c-4.16,0-7.54-3.37-7.54-7.54s3.37-7.54,7.54-7.54h235.48c4.16,0,7.54,3.37,7.54,7.54s-3.37,7.54-7.54,7.54Z"/>
  <path class="st0" d="M242.46,163.91H6.99c-4.16,0-7.54-3.37-7.54-7.54s3.37-7.54,7.54-7.54h235.48c4.16,0,7.54,3.37,7.54,7.54s-3.37,7.54-7.54,7.54Z"/>
  <path class="st0" d="M242.46,226.71H6.99c-4.16,0-7.54-3.37-7.54-7.54s3.37-7.54,7.54-7.54h235.48c4.16,0,7.54,3.37,7.54,7.54s-3.37,7.54-7.54,7.54Z"/>
</svg>