<?xml version="1.0" encoding="UTF-8"?>
<svg id="Layer_1" xmlns="http://www.w3.org/2000/svg" xmlns:xlink="http://www.w3.org/1999/xlink" version="1.1" viewBox="0 0 60 75">
  <!-- Generator: Adobe Illustrator 29.3.0, SVG Export Plug-In . SVG Version: 2.1.0 Build 146)  -->
  <defs>
    <style>
      .st0 {
        fill: #333;
        fill-rule: evenodd;
      }
    </style>
  </defs>
  <path class="st0" d="M1,35.82c-.45,0-.82-.37-.82-.82s.37-.82.82-.82h1.38l.04-.13c.83-2.91,1.88-5.88,4.69-7.51l.1-.06v-.11c-.02-.12-.02-.25-.02-.38,0-4.86,3.96-8.82,8.82-8.82.34,0,.67.02.99.06l.28.04c.23.03.46.07.69.12.1.02.19.05.29.07.25.07.45.13.66.2.11.04.22.08.33.12.21.08.4.17.6.27l.22.1.13.07.09-.12c1.27-1.69,2.84-3.13,4.69-4.28l.1-.07-.02-.12c-.64-3.38-3.6-5.83-7.05-5.83-1.42,0-2.79.42-3.97,1.2-.13.09-.29.14-.45.14-.28,0-.53-.14-.68-.37C9.82,4.17,5.81,1.82,1,1.82c-.45,0-.82-.37-.82-.82S.55.18,1,.18C6.03.18,10.43,2.58,13.72,7.11l.09.12.14-.07c1.24-.64,2.64-.98,4.05-.98,4,0,7.51,2.7,8.52,6.55l.06.21.2-.09c2.31-1.09,4.84-1.67,7.31-1.67,8.85,0,16.19,7.04,16.71,16.03v.13s.13.03.13.03c3.87,1.07,5.61,4.33,6.58,6.7l.04.11h1.45c.45,0,.82.37.82.82s-.37.82-.82.82H1ZM8.36,27.74c-2.27,1.09-3.26,3.1-4.2,6.21l-.07.23h51.69l-.12-.26c-1.43-3.09-3.16-4.62-5.8-5.12-.28-.04-1.24-.16-2.47-.16-.82,0-1.58.05-2.27.16-.04,0-.08,0-.12,0-.41,0-.75-.29-.81-.7-.07-.45.24-.87.69-.93.77-.12,1.62-.18,2.52-.18.57,0,1.1.02,1.53.05h.21s-.02-.2-.02-.2c-.68-7.88-7.28-14.05-15.03-14.05-4.74,0-9.5,2.38-12.43,6.2l-.1.14.13.11c1.99,1.69,3.14,4.14,3.14,6.73,0,.45-.37.82-.82.82s-.82-.37-.82-.82c0-2.44-1.23-4.7-3.3-6.03-.23-.15-.47-.28-.71-.4l-.21-.1c-.28-.13-.57-.24-.86-.33l-.1-.02c-.27-.08-.54-.14-.82-.18l-.23-.04c-.31-.04-.63-.07-.95-.07-3.96,0-7.18,3.22-7.18,7.18,0,.08,0,.17.01.25v.21s0,.16,0,.16c0,.14-.02.26-.02.38v.52l-.46.22Z"/>
  <path class="st0" d="M59,41.82c-.13,0-.25-.03-.37-.09l-2.2-1.1c-.5-.25-1.07-.39-1.63-.39-.47,0-.92.09-1.36.26l-1.27.51c-.63.25-1.29.38-1.97.38-.82,0-1.64-.19-2.37-.56l-.21-.1c-.4-.2-.57-.7-.36-1.1.14-.28.42-.45.73-.45.13,0,.25.03.37.09l.2.1c.5.25,1.07.38,1.63.38.47,0,.92-.09,1.36-.26l1.27-.51c.63-.25,1.29-.38,1.97-.38.82,0,1.64.19,2.37.56l2.2,1.1c.4.2.57.7.37,1.1-.14.28-.42.45-.73.45Z"/>
  <path class="st0" d="M34,41.29c-.82,0-1.64-.19-2.37-.55-.5-.25-1.07-.38-1.63-.38s-1.13.13-1.63.38c-.12.06-.24.09-.37.09-.31,0-.59-.17-.74-.45-.2-.4-.04-.9.37-1.1.73-.36,1.54-.56,2.37-.56s1.64.19,2.37.56c.5.25,1.07.38,1.63.38s1.13-.13,1.63-.38c.73-.36,1.55-.56,2.37-.56s1.64.19,2.37.56c.2.1.34.27.41.47.07.21.05.43-.04.63-.14.28-.42.45-.73.45h0c-.13,0-.25-.03-.37-.09-.5-.25-1.07-.38-1.63-.38s-1.13.13-1.63.38c-.73.36-1.55.56-2.37.56Z"/>
  <path class="st0" d="M1,41.82c-.34,0-.64-.2-.76-.52-.17-.42.04-.9.46-1.07l3.14-1.25c.63-.25,1.29-.38,1.96-.38.82,0,1.64.19,2.37.56l.2.1c.5.25,1.07.38,1.63.38s1.13-.13,1.63-.38c.73-.36,1.54-.56,2.37-.56s1.64.19,2.37.56c.5.25,1.07.38,1.63.38s1.13-.13,1.63-.38c.11-.06.24-.09.37-.09.31,0,.6.17.74.45.2.4.04.9-.37,1.1-.73.36-1.55.56-2.37.56s-1.64-.19-2.37-.56c-.5-.25-1.07-.38-1.63-.38s-1.13.13-1.63.38c-.73.36-1.54.56-2.37.56s-1.64-.19-2.37-.56l-.2-.1c-.5-.25-1.07-.39-1.63-.39-.47,0-.92.09-1.36.26l-3.14,1.25c-.1.04-.2.06-.3.06Z"/>
  <path class="st0" d="M50.2,47.39c-.82,0-1.64-.19-2.37-.56l-.21-.1c-.49-.25-1.02-.37-1.58-.37-.59,0-1.2.14-1.77.41-.7.33-1.49.51-2.28.51-.41,0-.82-.05-1.22-.14-.25-.06-.46-.23-.57-.46-.11-.23-.1-.49,0-.71.14-.27.42-.44.74-.44.07,0,.14,0,.21.03.27.06.55.09.83.09.54,0,1.08-.12,1.57-.35.83-.39,1.71-.6,2.54-.6.75,0,1.46.16,2.11.49l.35.18c.51.25,1.07.39,1.64.39.47,0,.92-.09,1.36-.26l1.27-.51c.1-.04.2-.06.3-.06.34,0,.64.2.76.52.08.2.08.43,0,.63-.09.2-.25.36-.45.44l-1.27.51c-.63.25-1.29.38-1.96.38Z"/>
  <path class="st0" d="M26,47.29c-.82,0-1.64-.19-2.37-.55-.5-.25-1.07-.38-1.64-.38s-1.13.13-1.63.38c-.73.36-1.55.56-2.37.56s-1.64-.19-2.37-.56c-.4-.2-.57-.7-.37-1.1.14-.28.42-.45.73-.45.13,0,.25.03.37.09.5.25,1.07.38,1.63.38s1.13-.13,1.63-.38c.73-.36,1.55-.56,2.37-.56s1.64.19,2.37.56c.5.25,1.07.38,1.63.38s1.13-.13,1.63-.38c.12-.06.24-.09.37-.09.31,0,.59.17.74.45.2.4.04.9-.37,1.1-.73.36-1.55.56-2.37.56Z"/>
  <path class="st0" d="M1,47.82c-.34,0-.64-.2-.76-.52-.17-.42.04-.9.46-1.07l3.14-1.25c.63-.25,1.29-.38,1.96-.38.82,0,1.64.19,2.37.56l.2.1c.4.2.57.7.37,1.1-.14.28-.42.45-.74.45-.13,0-.25-.03-.36-.09l-.2-.1c-.51-.25-1.07-.39-1.63-.39-.47,0-.92.09-1.36.26l-3.14,1.25c-.1.04-.2.06-.3.06Z"/>
  <path class="st0" d="M59,53.82c-.13,0-.25-.03-.37-.09l-2.2-1.1c-.5-.25-1.07-.39-1.63-.39-.47,0-.92.09-1.36.26l-1.27.51c-.63.25-1.29.38-1.97.38-.82,0-1.64-.19-2.37-.56l-.21-.1c-.4-.2-.57-.7-.36-1.1.14-.28.42-.45.73-.45.13,0,.25.03.37.09l.21.1c.5.25,1.06.39,1.63.39.47,0,.92-.09,1.36-.26l1.27-.51c.63-.25,1.29-.38,1.97-.38.82,0,1.64.19,2.37.56l2.2,1.1c.4.2.57.7.37,1.1-.14.28-.42.45-.73.45Z"/>
  <path class="st0" d="M34,53.29c-.82,0-1.64-.19-2.37-.55-.5-.25-1.07-.38-1.63-.38s-1.13.13-1.63.38c-.12.06-.24.09-.37.09-.31,0-.59-.17-.74-.45-.2-.4-.04-.9.37-1.1.73-.36,1.54-.56,2.37-.56s1.64.19,2.37.56c.5.25,1.07.38,1.63.38s1.13-.13,1.63-.38c.12-.06.24-.09.37-.09.31,0,.6.17.73.45.2.41.04.9-.37,1.1-.73.36-1.55.56-2.37.56Z"/>
  <path class="st0" d="M10,53.29c-.82,0-1.64-.19-2.37-.56l-.2-.1c-.51-.25-1.07-.39-1.63-.39-.47,0-.92.09-1.36.26-.1.04-.2.06-.3.06-.34,0-.64-.2-.76-.51-.08-.2-.08-.43,0-.63s.25-.36.45-.44c.63-.25,1.29-.38,1.97-.38.82,0,1.64.19,2.37.56l.2.1c.5.25,1.07.38,1.63.38s1.13-.13,1.63-.38c.73-.36,1.55-.56,2.37-.56s1.64.19,2.37.56c.4.2.57.7.37,1.1-.14.28-.42.45-.73.45h0c-.13,0-.25-.03-.37-.09-.5-.25-1.07-.38-1.63-.38s-1.13.13-1.63.38c-.73.36-1.55.56-2.37.56Z"/>
  <path class="st0" d="M59,59.82c-.13,0-.25-.03-.37-.09l-2.2-1.1c-.5-.25-1.07-.39-1.63-.39-.47,0-.92.09-1.36.26l-1.27.51c-.63.25-1.29.38-1.97.38-.82,0-1.64-.19-2.37-.56-.2-.1-.34-.27-.41-.47-.07-.21-.05-.43.04-.63.14-.28.42-.45.73-.45.13,0,.25.03.37.09.5.25,1.07.38,1.63.38.47,0,.92-.09,1.36-.26l1.27-.51c.63-.25,1.29-.38,1.97-.38.82,0,1.64.19,2.37.56l2.2,1.1c.4.2.57.7.37,1.1-.14.28-.42.45-.73.45Z"/>
  <path class="st0" d="M34,59.29c-.82,0-1.64-.19-2.37-.55-.2-.1-.34-.27-.41-.47s-.05-.43.04-.63c.14-.28.42-.45.73-.45.13,0,.25.03.37.09.5.25,1.07.38,1.63.38s1.13-.13,1.63-.38c.73-.36,1.55-.56,2.37-.56s1.64.19,2.37.56c.2.1.34.27.41.47.07.21.05.43-.04.63-.14.28-.42.45-.73.45h0c-.13,0-.25-.03-.37-.09-.5-.25-1.07-.38-1.63-.38s-1.13.13-1.63.38c-.73.36-1.55.56-2.37.56Z"/>
  <path class="st0" d="M18,59.29c-.82,0-1.64-.19-2.37-.56-.4-.2-.57-.7-.37-1.1.14-.28.42-.45.73-.45.13,0,.25.03.37.09.5.25,1.07.38,1.63.38s1.13-.13,1.63-.38c.73-.36,1.55-.56,2.37-.56s1.64.19,2.37.56c.41.2.57.7.37,1.1-.14.28-.42.45-.73.45h0c-.13,0-.25-.03-.37-.09-.5-.25-1.07-.38-1.64-.38s-1.13.13-1.63.38c-.73.36-1.55.56-2.37.56Z"/>
  <path class="st0" d="M1,59.82c-.34,0-.64-.2-.76-.52-.17-.42.04-.9.46-1.07l3.14-1.25c.63-.25,1.29-.38,1.96-.38.82,0,1.64.19,2.37.56l.2.1c.4.2.57.7.37,1.1-.14.28-.42.45-.74.45h0c-.13,0-.25-.03-.37-.09l-.2-.1c-.51-.25-1.07-.39-1.63-.39-.47,0-.92.09-1.36.26l-3.14,1.25c-.1.04-.2.06-.3.06Z"/>
  <path class="st0" d="M53,17.82c-.45,0-.82-.32-.89-.77-.41-2.67-2.49-4.74-5.15-5.16-.45-.07-.77-.45-.77-.89s.32-.82.77-.89c2.67-.41,4.74-2.48,5.16-5.15.07-.45.45-.77.89-.77s.82.32.89.77c.41,2.67,2.49,4.74,5.15,5.16.45.07.77.45.77.89s-.32.82-.77.89c-2.67.41-4.74,2.48-5.16,5.15-.07.45-.45.77-.89.77ZM52.84,7.8c-.71,1.28-1.76,2.33-3.04,3.04l-.29.16.29.16c1.28.71,2.33,1.76,3.04,3.04l.16.29.16-.29c.71-1.28,1.76-2.33,3.04-3.04l.29-.16-.29-.16c-1.28-.71-2.33-1.76-3.04-3.04l-.16-.29-.16.29Z"/>
  <path class="st0" d="M39,9.82c-.43,0-.79-.31-.86-.74-.26-1.67-1.55-2.96-3.21-3.22-.4-.06-.75-.46-.75-.87s.35-.81.75-.87c1.66-.26,2.95-1.55,3.21-3.21.06-.4.47-.75.87-.75.43,0,.79.31.86.74.26,1.67,1.55,2.96,3.21,3.22.4.06.75.46.75.87,0,.43-.32.8-.75.87-1.66.26-2.95,1.55-3.21,3.21-.06.4-.47.75-.87.75ZM38.85,3.46c-.38.55-.85,1.02-1.4,1.39l-.21.15.21.15c.55.38,1.02.84,1.39,1.39l.15.21.15-.21c.38-.55.85-1.02,1.4-1.39l.21-.15-.21-.15c-.55-.38-1.02-.84-1.39-1.39l-.15-.21-.15.21Z"/>
</svg>