<?xml version="1.0" encoding="UTF-8"?>
<svg id="Layer_1" xmlns="http://www.w3.org/2000/svg" version="1.1" viewBox="0 0 128 160">
  <!-- Generator: Adobe Illustrator 29.3.0, SVG Export Plug-In . SVG Version: 2.1.0 Build 146)  -->
  <defs>
    <style>
      .st0 {
        fill: #333;
      }
    </style>
  </defs>
  <path class="st0" d="M64,44c1.48,0,2.95.16,4.39.48,1.08.24,2.15-.44,2.39-1.52.24-1.08-.44-2.14-1.51-2.38-1.73-.38-3.49-.58-5.26-.58h-.01c-1.82,0-3.62.2-5.39.61-1.08.25-1.75,1.32-1.5,2.4.21.91,1.02,1.55,1.95,1.55.15,0,.3-.02.45-.05,1.47-.34,2.98-.51,4.5-.51h.01Z"/>
  <path class="st0" d="M68.91,87.44c.15,0,.3,0,.45-.04,3.51-.81,6.8-2.39,9.62-4.64.86-.69,1-1.95.3-2.81-.69-.85-1.94-.99-2.8-.31-2.35,1.87-5.08,3.19-8.01,3.87-1.08.25-1.75,1.32-1.5,2.39.25.88,1.03,1.51,1.95,1.55Z"/>
  <path class="st0" d="M42,62.04c-1.1,0-2,.9-2,2,0,3.6.81,7.16,2.39,10.41.47,1,1.67,1.42,2.66.95,1-.47,1.42-1.67.95-2.66,0,0,0-.02-.01-.03-1.31-2.7-1.99-5.67-1.99-8.67,0-1.1-.9-2-2-2Z"/>
  <path class="st0" d="M76.42,48.32c2.35,1.87,4.26,4.24,5.58,6.94.5.97,1.68,1.37,2.67.92.99-.48,1.41-1.68.92-2.67,0,0,0,0,0,0-1.58-3.24-3.87-6.08-6.69-8.32-.87-.69-2.12-.54-2.81.32-.69.87-.54,2.12.32,2.81Z"/>
  <path class="st0" d="M51.49,48.39c.86-.69,1-1.95.31-2.81-.69-.86-1.95-1-2.81-.31-2.81,2.26-5.07,5.11-6.64,8.36-.48,1-.06,2.19.94,2.67,1,.48,2.19.06,2.67-.94,1.3-2.71,3.19-5.09,5.54-6.97Z"/>
  <path class="st0" d="M86,61.96c-1.11.02-2,.93-2,2.04,0,3-.67,5.97-1.97,8.67-.48.99-.06,2.19.93,2.67,1,.46,2.18.05,2.67-.93,1.57-3.26,2.38-6.83,2.37-10.44v-.06c0-1.08-.88-1.96-1.97-1.96-.01,0-.02,0-.03,0Z"/>
  <path class="st0" d="M49.06,82.78c2.82,2.24,6.11,3.82,9.63,4.62,1.08.24,2.15-.43,2.39-1.51s-.43-2.15-1.51-2.39h0c-2.93-.67-5.67-1.98-8.02-3.85-.86-.69-2.12-.55-2.81.32-.69.86-.55,2.12.32,2.81h0Z"/>
  <path class="st0" d="M78.57,5.78c3.21.8,6.35,1.87,9.38,3.19,1.01.42,2.18-.03,2.63-1.03.44-1.01-.02-2.19-1.03-2.63,0,0,0,0,0,0-3.24-1.41-6.59-2.55-10.01-3.41-1.07-.27-2.16.38-2.42,1.46-.27,1.07.38,2.16,1.46,2.42Z"/>
  <path class="st0" d="M96.84,114.22c-2.77,1.81-5.68,3.39-8.7,4.72-1.01.45-1.47,1.63-1.02,2.64.46,1,1.62,1.46,2.64,1.03,3.23-1.42,6.33-3.11,9.28-5.04.92-.61,1.18-1.85.58-2.77s-1.85-1.18-2.77-.58h0Z"/>
  <path class="st0" d="M78.78,122.17c-3.21.81-6.47,1.35-9.77,1.63-1.1.09-1.92,1.06-1.83,2.16.12,1.09,1.07,1.89,2.16,1.83,3.52-.29,7-.87,10.42-1.74,1.07-.27,1.72-1.36,1.45-2.43s-1.36-1.72-2.43-1.45h0Z"/>
  <path class="st0" d="M58.72,4.22c.06,0,.11,0,.17,0,3.3-.28,6.61-.29,9.91-.03,1.1.09,2.06-.74,2.15-1.84.09-1.1-.74-2.06-1.83-2.15-3.51-.27-7.05-.26-10.56.03-1.1.09-1.92,1.06-1.83,2.16.09,1.03.95,1.83,1.99,1.83h0Z"/>
  <path class="st0" d="M96.68,13.67c2.77,1.81,5.39,3.83,7.83,6.07.83.72,2.07.66,2.83-.12.75-.81.69-2.08-.12-2.82,0,0,0,0,0,0-2.6-2.38-5.4-4.55-8.35-6.47-.93-.6-2.17-.34-2.77.59-.6.93-.34,2.17.59,2.77h0Z"/>
  <path class="st0" d="M128,63.79c0-1.1-.9-2-2-2s-2,.9-2,2v.21c0,3.31-.27,6.61-.81,9.87-.16,1.12.62,2.15,1.73,2.31.08.01.16.02.24.02.98,0,1.81-.71,1.97-1.67.57-3.49.86-7.02.86-10.55v-.19Z"/>
  <path class="st0" d="M123.31,82.23c-1.04-.36-2.18.2-2.54,1.24,0,0,0,0,0,0-1.07,3.13-2.41,6.16-3.98,9.07-.53.97-.17,2.19.81,2.71.97.5,2.17.15,2.71-.81,1.68-3.1,3.1-6.34,4.25-9.68.36-1.04-.2-2.18-1.24-2.54,0,0,0,0,0,0Z"/>
  <path class="st0" d="M114.17,100.49c-.87-.68-2.13-.52-2.8.35h0c-2.03,2.61-4.28,5.05-6.71,7.29-.81.75-.86,2.01-.12,2.83.76.79,2,.84,2.83.12,2.59-2.39,4.99-4.99,7.16-7.77.68-.87.52-2.13-.35-2.81,0,0,0,0,0,0Z"/>
  <path class="st0" d="M38.96,9.25c.28,0,.55-.05.81-.16,3.02-1.34,6.16-2.42,9.36-3.24,1.07-.27,1.72-1.36,1.44-2.43-.27-1.07-1.36-1.72-2.43-1.44-3.42.87-6.76,2.03-9.99,3.46-1.01.45-1.47,1.63-1.02,2.64,0,0,0,0,0,0,.34.71,1.05,1.17,1.83,1.18Z"/>
  <path class="st0" d="M116.69,35.28c.54.96,1.74,1.31,2.71.8.97-.53,1.33-1.74.8-2.71-1.69-3.09-3.64-6.04-5.81-8.82-.68-.87-1.94-1.02-2.81-.34-.87.68-1.02,1.94-.34,2.81,0,0,0,0,0,0,2.04,2.6,3.86,5.37,5.45,8.27Z"/>
  <path class="st0" d="M7.27,83.57c-.36-1.04-1.5-1.6-2.54-1.24-1.04.36-1.6,1.5-1.24,2.54,1.15,3.33,2.58,6.57,4.26,9.66.55.94,1.74,1.29,2.71.8.97-.53,1.33-1.74.8-2.71-1.58-2.9-2.91-5.93-3.99-9.06Z"/>
  <path class="st0" d="M16.69,100.91c-.68-.87-1.94-1.02-2.81-.34-.87.68-1.02,1.94-.34,2.81,2.17,2.78,4.57,5.38,7.17,7.76.82.72,2.07.67,2.83-.12.75-.81.69-2.08-.12-2.83,0,0,0,0,0,0-2.44-2.24-4.68-4.67-6.72-7.28Z"/>
  <path class="st0" d="M39.95,118.99c-3.03-1.33-5.94-2.91-8.72-4.71-.92-.6-2.16-.34-2.77.58-.6.92-.34,2.16.58,2.77h0c2.96,1.93,6.06,3.61,9.3,5.03,1.01.43,2.18-.03,2.63-1.03.44-1.01-.02-2.19-1.03-2.63Z"/>
  <path class="st0" d="M123.16,53.92c.2,1.08,1.22,1.8,2.31,1.64,1.09-.18,1.82-1.22,1.64-2.3,0,0,0,0,0,0-.59-3.48-1.47-6.9-2.62-10.24-.36-1.04-1.5-1.6-2.54-1.23-1.04.36-1.6,1.5-1.23,2.54,1.08,3.12,1.9,6.33,2.46,9.59Z"/>
  <path class="st0" d="M8.45,36.35c.97.51,2.18.15,2.71-.81,1.57-2.91,3.38-5.69,5.41-8.3.68-.87.52-2.13-.35-2.81s-2.13-.52-2.81.35c-2.16,2.79-4.09,5.75-5.77,8.85-.52.97-.16,2.19.81,2.71,0,0,0,0,0,0Z"/>
  <path class="st0" d="M59.1,123.8c-3.3-.27-6.56-.81-9.77-1.61-1.07-.27-2.16.39-2.42,1.46-.27,1.07.38,2.15,1.45,2.42,3.42.86,6.91,1.43,10.42,1.72,1.1.09,2.07-.73,2.16-1.83.09-1.1-.73-2.07-1.83-2.16,0,0,0,0,0,0h0Z"/>
  <path class="st0" d="M4.83,73.98c-.54-3.26-.82-6.56-.83-9.87,0-1.1-.9-2-2-2-1.1,0-2,.9-2,2,0,3.53.3,7.05.88,10.53.2,1.08,1.22,1.8,2.3,1.64,1.09-.18,1.82-1.21,1.64-2.3Z"/>
  <path class="st0" d="M21.91,20.44c.5.01.98-.17,1.36-.5,2.43-2.25,5.04-4.29,7.8-6.11.92-.61,1.18-1.85.57-2.77-.61-.92-1.85-1.18-2.77-.57h0c-2.95,1.94-5.73,4.12-8.32,6.51-.81.73-.88,1.97-.15,2.78.38.43.93.67,1.51.65h0Z"/>
  <path class="st0" d="M2.49,55.88c1.09.17,2.11-.57,2.3-1.65.53-3.26,1.34-6.48,2.41-9.61.35-1.05-.21-2.18-1.25-2.53-1.04-.35-2.17.2-2.53,1.24-1.14,3.34-2,6.77-2.57,10.25-.18,1.09.56,2.12,1.65,2.3Z"/>
  <path class="st0" d="M23.22,48.84c1.01.43,2.19-.04,2.62-1.05,0,0,0,0,0,0,2.08-4.89,5.12-9.31,8.94-13.01,6.56-6.35,15.01-10.37,24.07-11.45l-2.27,2.27c-.78.78-.78,2.05,0,2.83,0,0,0,0,0,0,.79.77,2.04.77,2.83,0,.3-.3,5.76-5.7,6.13-6.15.24-.29.39-.64.44-1.01.07-.61-.14-1.23-.57-1.67l-6-6c-.78-.78-2.05-.78-2.83,0-.78.78-.78,2.04,0,2.82l2.81,2.81c-10.31,1.01-19.97,5.48-27.41,12.68-4.2,4.07-7.54,8.93-9.83,14.31-.43,1.02.04,2.19,1.06,2.62Z"/>
  <path class="st0" d="M48.84,104.78c.43-1.02-.04-2.19-1.06-2.62-4.89-2.08-9.31-5.12-13.01-8.94-3.75-3.86-6.71-8.41-8.71-13.4-1.66-4.11-2.66-8.46-2.95-12.88l2.47,2.47c.79.77,2.04.77,2.83,0,.78-.78.78-2.05,0-2.83,0,0,0,0,0,0l-6-6c-.78-.78-2.05-.78-2.83,0,0,0,0,0,0,0l-6,6c-.78.78-.78,2.05,0,2.83s2.05.78,2.83,0l2.67-2.67c.62,10.98,5.17,21.37,12.82,29.27,4.07,4.2,8.93,7.54,14.31,9.83,1.02.42,2.18-.05,2.62-1.06Z"/>
  <path class="st0" d="M105.84,81.78c.43-1.02-.05-2.19-1.06-2.62-1.01-.43-2.18.04-2.62,1.05-2.08,4.89-5.12,9.31-8.94,13.01-3.86,3.75-8.41,6.71-13.4,8.71-4.44,1.8-9.16,2.82-13.95,3.01l2.54-2.54c.78-.78.77-2.05,0-2.83-.78-.78-2.04-.78-2.82,0l-6,6c-.78.78-.78,2.05,0,2.83,0,0,0,0,0,0l6,6c.79.76,2.04.76,2.83,0,.78-.78.78-2.05,0-2.83h0s-2.63-2.63-2.63-2.63c5.33-.19,10.59-1.31,15.53-3.31,5.47-2.19,10.46-5.44,14.69-9.55,4.2-4.07,7.54-8.93,9.83-14.31Z"/>
  <path class="st0" d="M112.59,59.59l-2.63,2.63c-.19-5.33-1.31-10.59-3.31-15.53-2.19-5.47-5.44-10.46-9.55-14.69-4.07-4.2-8.93-7.54-14.31-9.83-1.02-.43-2.19.04-2.62,1.06-.43,1.02.04,2.19,1.06,2.62h0c4.89,2.08,9.31,5.12,13.01,8.94,3.75,3.86,6.71,8.41,8.71,13.4,1.8,4.44,2.82,9.16,3.01,13.95l-2.54-2.54c-.78-.78-2.05-.78-2.83,0-.78.78-.78,2.04,0,2.82l6,6c.78.78,2.05.78,2.83,0,0,0,0,0,0,0l6-6c.78-.78.78-2.05,0-2.83-.78-.78-2.04-.78-2.82,0h0Z"/>
</svg>