<?xml version="1.0" encoding="UTF-8"?>
<svg id="Layer_1" xmlns="http://www.w3.org/2000/svg" version="1.1" viewBox="0 0 250 250">
  <!-- Generator: Adobe Illustrator 29.3.0, SVG Export Plug-In . SVG Version: 2.1.0 Build 146)  -->
  <defs>
    <style>
      .st0 {
        fill: #333;
      }
    </style>
  </defs>
  <path class="st0" d="M124.73,225.56c-1.9,0-3.79-.72-5.25-2.16l-52.96-52.54-52.96,52.54c-2.92,2.9-7.64,2.88-10.54-.04-2.9-2.92-2.88-7.64.04-10.54l58.2-57.75c2.91-2.88,7.59-2.88,10.49,0l52.96,52.54,52.96-52.54c2.91-2.88,7.59-2.88,10.49,0l58.2,57.75c2.92,2.9,2.94,7.62.04,10.54-2.9,2.92-7.62,2.94-10.54.04l-52.96-52.54-52.96,52.54c-1.45,1.44-3.35,2.16-5.25,2.16Z"/>
  <path class="st0" d="M124.73,182.72c-1.9,0-3.79-.72-5.25-2.16l-52.96-52.54-52.96,52.54c-2.92,2.9-7.64,2.88-10.54-.04-2.9-2.92-2.88-7.64.04-10.54l58.2-57.75c2.91-2.88,7.59-2.88,10.49,0l52.96,52.54,52.96-52.54c2.91-2.88,7.59-2.88,10.49,0l58.2,57.75c2.92,2.9,2.94,7.62.04,10.54-2.9,2.92-7.62,2.94-10.54.04l-52.96-52.54-52.96,52.54c-1.45,1.44-3.35,2.16-5.25,2.16Z"/>
  <path class="st0" d="M124.73,139.89c-1.9,0-3.79-.72-5.25-2.16l-52.96-52.54-52.96,52.54c-2.92,2.9-7.64,2.88-10.54-.04-2.9-2.92-2.88-7.64.04-10.54l58.2-57.75c2.91-2.88,7.59-2.88,10.49,0l52.96,52.54,52.96-52.54c2.91-2.88,7.59-2.88,10.49,0l58.2,57.75c2.92,2.9,2.94,7.62.04,10.54-2.9,2.92-7.62,2.94-10.54.04l-52.96-52.54-52.96,52.54c-1.45,1.44-3.35,2.16-5.25,2.16Z"/>
  <path class="st0" d="M124.73,97.05c-1.9,0-3.79-.72-5.25-2.16l-52.96-52.54L13.57,94.89c-2.92,2.9-7.64,2.88-10.54-.04-2.9-2.92-2.88-7.64.04-10.54L61.27,26.56c2.91-2.88,7.59-2.88,10.49,0l52.96,52.54,52.96-52.54c2.91-2.88,7.59-2.88,10.49,0l58.2,57.75c2.92,2.9,2.94,7.61.04,10.54-2.9,2.92-7.62,2.94-10.54.04l-52.96-52.54-52.96,52.54c-1.45,1.44-3.35,2.16-5.25,2.16Z"/>
</svg>