<?xml version="1.0" encoding="UTF-8"?>
<svg id="Layer_1" xmlns="http://www.w3.org/2000/svg" version="1.1" viewBox="0 0 250 250">
  <!-- Generator: Adobe Illustrator 29.3.0, SVG Export Plug-In . SVG Version: 2.1.0 Build 146)  -->
  <defs>
    <style>
      .st0 {
        fill: #333;
      }
    </style>
  </defs>
  <path class="st0" d="M30.14,226.73c-2.25,0-4.48-1-5.96-2.92-2.55-3.29-1.95-8.02,1.34-10.57,12.85-9.97,20.23-24.96,20.23-41.14s-7.37-31.17-20.23-41.14C8.95,118.12-.55,98.79-.55,77.91S8.95,37.7,25.52,24.86c3.29-2.55,8.02-1.95,10.57,1.34,2.55,3.29,1.95,8.02-1.34,10.57-12.85,9.97-20.23,24.96-20.23,41.14s7.37,31.17,20.23,41.14c16.56,12.84,26.06,32.18,26.06,53.05s-9.5,40.21-26.06,53.05c-1.37,1.07-3,1.58-4.61,1.58Z"/>
  <path class="st0" d="M93.2,226.73c-2.25,0-4.48-1-5.96-2.92-2.55-3.29-1.95-8.02,1.34-10.57,12.85-9.97,20.23-24.96,20.23-41.14s-7.37-31.17-20.23-41.14c-16.56-12.84-26.06-32.18-26.06-53.05s9.5-40.21,26.06-53.05c3.29-2.55,8.02-1.95,10.57,1.34,2.55,3.29,1.95,8.02-1.34,10.57-12.85,9.97-20.23,24.96-20.23,41.14s7.37,31.17,20.23,41.14c16.56,12.84,26.06,32.18,26.06,53.05s-9.5,40.21-26.06,53.05c-1.37,1.07-3,1.58-4.61,1.58Z"/>
  <path class="st0" d="M156.26,226.73c-2.25,0-4.48-1-5.96-2.92-2.55-3.29-1.95-8.02,1.34-10.57,12.85-9.97,20.23-24.96,20.23-41.14s-7.37-31.17-20.23-41.14c-16.56-12.84-26.06-32.18-26.06-53.05s9.5-40.21,26.06-53.05c3.29-2.55,8.02-1.95,10.57,1.34,2.55,3.29,1.95,8.02-1.34,10.57-12.85,9.97-20.23,24.96-20.23,41.14s7.37,31.17,20.23,41.14c16.56,12.84,26.06,32.18,26.06,53.05s-9.5,40.21-26.06,53.05c-1.37,1.07-3,1.58-4.61,1.58Z"/>
  <path class="st0" d="M219.33,226.73c-2.25,0-4.48-1-5.96-2.92-2.55-3.29-1.95-8.02,1.34-10.57,12.85-9.97,20.23-24.96,20.23-41.14s-7.37-31.17-20.23-41.14c-16.56-12.84-26.06-32.18-26.06-53.05s9.5-40.21,26.06-53.05c3.29-2.55,8.02-1.95,10.57,1.34,2.55,3.29,1.95,8.02-1.34,10.57-12.85,9.97-20.23,24.96-20.23,41.14s7.37,31.17,20.23,41.14c16.56,12.84,26.06,32.18,26.06,53.05s-9.5,40.21-26.06,53.05c-1.37,1.07-3,1.58-4.61,1.58Z"/>
</svg>