<?xml version="1.0" encoding="UTF-8"?>
<svg id="Layer_1" xmlns="http://www.w3.org/2000/svg" xmlns:xodm="http://www.corel.com/coreldraw/odm/2003" xmlns:xlink="http://www.w3.org/1999/xlink" version="1.1" viewBox="0 0 333.33 416.66">
  <!-- Generator: Adobe Illustrator 29.3.0, SVG Export Plug-In . SVG Version: 2.1.0 Build 146)  -->
  <defs>
    <style>
      .st0 {
        fill: #333;
      }
    </style>
  </defs>
  <path class="st0" d="M166.67,321.29c-77.08,0-139.79-62.71-139.79-139.79,0-63.87,43.16-119.56,104.96-135.41l2.71-.69v-28.62c0-2.61,2.12-4.73,4.73-4.73h54.76c2.61,0,4.73,2.12,4.73,4.73v29.43h3.16c61.57,15.99,104.53,71.56,104.53,135.3,0,77.08-62.71,139.79-139.79,139.79ZM166.68,51.18c-34.39,0-66.89,13.33-91.53,37.54-25.01,24.58-38.79,57.53-38.79,92.78,0,71.86,58.46,130.32,130.32,130.32s130.32-58.46,130.32-130.32c0-35.29-13.8-68.26-38.86-92.84-24.64-24.17-57.12-37.48-91.46-37.48ZM144.02,43.48l4.08-.54c6.12-.82,12.37-1.23,18.57-1.23s12.38.41,18.57,1.23l4.07.54v-21.98h-45.29v21.98ZM166.68,294.11c-62.09,0-112.61-50.52-112.61-112.61s50.52-112.61,112.61-112.61,112.61,50.52,112.61,112.61-50.52,112.61-112.61,112.61ZM166.68,78.36c-56.87,0-103.14,46.27-103.14,103.14s46.27,103.14,103.14,103.14,103.14-46.27,103.14-103.14-46.27-103.14-103.14-103.14ZM166.65,273.56c-2.61,0-4.73-2.12-4.73-4.73s2.12-4.73,4.73-4.73,4.8,2.12,4.8,4.73-2.12,4.73-4.73,4.73h-.07ZM210.32,261.87c-1.76,0-3.36-.96-4.18-2.52-1.21-2.3-.33-5.15,1.97-6.37l.12-.07c.63-.33,1.37-.52,2.13-.52,1.76,0,3.36.96,4.18,2.52.59,1.11.7,2.39.33,3.59-.37,1.2-1.19,2.19-2.31,2.78l-.12.07c-.63.33-1.37.52-2.14.52ZM123.04,261.87c-.75,0-1.47-.17-2.14-.52l-.11-.06c-1.11-.59-1.93-1.57-2.3-2.78-.37-1.2-.26-2.48.33-3.59.82-1.55,2.42-2.52,4.18-2.52.75,0,1.47.17,2.14.52l.11.06c2.3,1.21,3.19,4.07,1.97,6.37-.82,1.55-2.42,2.52-4.18,2.52ZM242.29,229.92c-.77,0-1.5-.18-2.19-.54-1.11-.59-1.93-1.57-2.3-2.78-.37-1.19-.26-2.45.31-3.55l.06-.11c.82-1.55,2.42-2.52,4.18-2.52.77,0,1.5.18,2.19.54,1.11.59,1.93,1.57,2.3,2.78.37,1.19.26,2.45-.31,3.55l-.06.11c-.82,1.55-2.42,2.52-4.18,2.52ZM91.07,229.92c-1.76,0-3.36-.97-4.18-2.52l-.06-.1c-.57-1.08-.69-2.36-.31-3.56.37-1.2,1.19-2.19,2.3-2.78.69-.36,1.42-.54,2.19-.54,1.76,0,3.36.96,4.18,2.52l.06.1c.57,1.08.69,2.36.31,3.56-.37,1.2-1.19,2.19-2.3,2.78-.69.36-1.42.54-2.19.54ZM79.35,186.27c-2.61,0-4.73-2.12-4.73-4.73s2.12-4.8,4.73-4.8,4.73,2.12,4.73,4.73-2.12,4.8-4.73,4.8ZM254.01,186.26c-2.61,0-4.73-2.12-4.73-4.73s2.12-4.8,4.73-4.8,4.73,2.12,4.73,4.73-2.12,4.8-4.73,4.8ZM131.63,186.23c-4.4,0-4.62-3.94-4.62-4.73s.22-4.73,4.62-4.73h30.32v-50.66c.22-4.03,3.96-4.24,4.72-4.24s4.74.22,4.74,4.62v55.02c0,2.61-2.12,4.73-4.73,4.73h-35.05ZM242.34,142.58c-1.76,0-3.36-.96-4.18-2.52l-.06-.1c-.57-1.08-.69-2.36-.32-3.56.37-1.2,1.19-2.19,2.3-2.78.69-.36,1.42-.54,2.19-.54,1.76,0,3.36.97,4.18,2.52l.06.1c1.2,2.27.31,5.12-1.99,6.33-.68.36-1.42.54-2.19.54ZM91.02,142.58c-.77,0-1.5-.18-2.19-.54-1.11-.59-1.93-1.57-2.3-2.78-.37-1.19-.26-2.45.31-3.55l.06-.11c.82-1.55,2.42-2.52,4.18-2.52.77,0,1.5.18,2.19.54,1.11.59,1.93,1.57,2.31,2.78.37,1.19.26,2.45-.31,3.55l-.06.11c-.82,1.55-2.42,2.52-4.18,2.52ZM210.38,110.6c-.75,0-1.47-.17-2.14-.52l-.12-.06c-1.11-.59-1.93-1.57-2.31-2.78s-.25-2.48.33-3.59c.82-1.55,2.42-2.52,4.18-2.52.75,0,1.47.18,2.14.52l.11.06c1.11.59,1.93,1.57,2.31,2.78s.25,2.48-.33,3.59c-.82,1.55-2.42,2.52-4.18,2.52ZM122.98,110.6c-1.76,0-3.36-.96-4.18-2.52-.59-1.11-.7-2.39-.33-3.59s1.19-2.19,2.31-2.78l.1-.05c.66-.35,1.4-.53,2.16-.53,1.76,0,3.36.97,4.18,2.52.59,1.11.7,2.39.33,3.59s-1.19,2.19-2.31,2.78l-.11.06c-.64.34-1.38.52-2.14.52ZM166.64,98.9c-2.61,0-4.73-2.12-4.73-4.73s2.12-4.73,4.73-4.73,4.8,2.12,4.8,4.73-2.12,4.73-4.73,4.73h-.07Z"/>
</svg>