<?xml version="1.0" encoding="UTF-8"?>
<svg id="Layer_1" xmlns="http://www.w3.org/2000/svg" version="1.1" viewBox="0 0 110 135">
  <!-- Generator: Adobe Illustrator 29.3.0, SVG Export Plug-In . SVG Version: 2.1.0 Build 146)  -->
  <defs>
    <style>
      .st0 {
        fill: #333;
      }
    </style>
  </defs>
  <path class="st0" d="M100.45,59.77c0,25.03-20.36,45.39-45.39,45.39-8.34,0-16.5-2.28-23.59-6.61-.75-.45-.97-1.41-.53-2.14.45-.73,1.41-.97,2.16-.53,6.61,4.03,14.2,6.16,21.97,6.16,23.3,0,42.27-18.95,42.27-42.27,0-7.42-1.91-14.59-5.56-20.94l.25,4.22c.05.86-.61,1.59-1.47,1.64h-.09c-.83,0-1.52-.64-1.56-1.47l-.58-10.19c-.03-.55.23-1.08.69-1.39.45-.3,1.03-.34,1.53-.12l8.86,4.09c.78.36,1.12,1.28.77,2.06-.36.8-1.3,1.12-2.08.77l-3.98-1.84c4.17,6.98,6.36,14.94,6.36,23.17h0Z"/>
  <path class="st0" d="M79.91,24.02c-.47.72-1.44.94-2.16.48-6.55-4.14-14.09-6.41-21.86-6.53h-.73c-22.97,0-41.86,18.48-42.25,41.55-.12,7.41,1.66,14.61,5.19,21.02l-.16-4.2c-.03-.86.64-1.59,1.5-1.62.89-.03,1.59.64,1.62,1.5l.41,10.2c.02.55-.25,1.06-.7,1.38-.27.16-.56.25-.86.25-.23,0-.47-.05-.67-.16l-8.8-4.23c-.78-.38-1.11-1.31-.73-2.09.38-.77,1.31-1.09,2.09-.72l3.97,1.92c-4.06-7.06-6.12-15.06-5.98-23.3.42-25.02,21.06-45.06,46.16-44.61,8.34.14,16.45,2.56,23.48,7.02.73.45.94,1.42.48,2.16h0Z"/>
  <path class="st0" d="M47.42,36.89l-4.39,3.59v-4.05l2.41-1.97c.67-.55,1.66-.45,2.2.22s.45,1.66-.22,2.2h0Z"/>
  <path class="st0" d="M47.42,55.05l-4.39,3.59v-4.03l2.41-1.97c.67-.55,1.66-.45,2.2.22.55.66.45,1.64-.22,2.19h0Z"/>
  <path class="st0" d="M47.42,73.22l-4.39,3.59v-4.05l2.41-1.97c.67-.55,1.66-.45,2.2.22s.45,1.66-.22,2.2h0Z"/>
  <path class="st0" d="M81.57,45.69h-31.67c-.86,0-1.56-.7-1.56-1.56s.7-1.56,1.56-1.56h31.67c.86,0,1.56.7,1.56,1.56s-.7,1.56-1.56,1.56Z"/>
  <path class="st0" d="M81.57,41h-31.67c-.86,0-1.56-.7-1.56-1.56s.7-1.56,1.56-1.56h31.67c.86,0,1.56.7,1.56,1.56s-.7,1.56-1.56,1.56Z"/>
  <path class="st0" d="M81.57,64.44h-31.67c-.86,0-1.56-.7-1.56-1.56s.7-1.56,1.56-1.56h31.67c.86,0,1.56.7,1.56,1.56s-.7,1.56-1.56,1.56Z"/>
  <path class="st0" d="M81.57,59.75h-31.67c-.86,0-1.56-.7-1.56-1.56s.7-1.56,1.56-1.56h31.67c.86,0,1.56.7,1.56,1.56s-.7,1.56-1.56,1.56Z"/>
  <path class="st0" d="M81.57,83.19h-31.67c-.86,0-1.56-.7-1.56-1.56s.7-1.56,1.56-1.56h31.67c.86,0,1.56.7,1.56,1.56s-.7,1.56-1.56,1.56Z"/>
  <path class="st0" d="M81.57,78.5h-31.67c-.86,0-1.56-.7-1.56-1.56s.7-1.56,1.56-1.56h31.67c.86,0,1.56.7,1.56,1.56s-.7,1.56-1.56,1.56Z"/>
  <path class="st0" d="M31.03,39.7c-.56.66-.5,1.64.16,2.2l3.89,3.39c.3.27.67.39,1.03.39s.7-.12.98-.36l2.81-2.3,3.12-2.55v7.52c0,.86-.7,1.56-1.56,1.56h-13.05c-.86,0-1.56-.7-1.56-1.56v-13.05c0-.86.7-1.56,1.56-1.56h13.05c.86,0,1.56.7,1.56,1.56v1.48l-3.12,2.56-3.77,3.08-2.91-2.53c-.64-.56-1.64-.5-2.2.16h0Z"/>
  <path class="st0" d="M31.03,57.88c-.56.64-.5,1.62.16,2.2l3.89,3.39c.3.25.67.38,1.03.38s.7-.11.98-.34l2.81-2.3,3.12-2.56v7.88c0,.88-.7,1.56-1.56,1.56h-13.05c-.86,0-1.56-.69-1.56-1.56v-13.03c0-.88.7-1.56,1.56-1.56h13.05c.86,0,1.56.69,1.56,1.56v1.12l-3.12,2.56-3.77,3.08-2.91-2.53c-.64-.56-1.64-.5-2.2.16h0Z"/>
  <path class="st0" d="M31.03,76.03c-.56.66-.5,1.64.16,2.2l3.89,3.39c.3.27.67.39,1.03.39s.7-.12.98-.36l2.81-2.3,3.12-2.55v8.23c0,.86-.7,1.56-1.56,1.56h-13.05c-.86,0-1.56-.7-1.56-1.56v-13.05c0-.86.7-1.56,1.56-1.56h13.05c.86,0,1.56.7,1.56,1.56v.77l-3.12,2.56-3.77,3.08-2.91-2.53c-.64-.56-1.64-.5-2.2.16h0Z"/>
</svg>