<?xml version="1.0" encoding="UTF-8"?>
<svg id="Layer_1" xmlns="http://www.w3.org/2000/svg" version="1.1" viewBox="0 0 125.86 121.74">
  <!-- Generator: Adobe Illustrator 29.3.0, SVG Export Plug-In . SVG Version: 2.1.0 Build 146)  -->
  <defs>
    <style>
      .st0 {
        fill: #333;
      }
    </style>
  </defs>
  <path class="st0" d="M122.4,92.28c0-2.31-.86-4.49-2.42-6.18h.01l-19.37-19.52-4.3-22.68c-.08-5.99-4.97-10.83-10.97-10.83h-19.78c6.88-1.54,12.03-7.68,12.03-15.01,0-8.48-6.9-15.38-15.39-15.38s-15.38,6.9-15.38,15.38c0,7.33,5.15,13.47,12.02,15.01h-19.77c-6,0-10.9,4.84-10.97,10.83l-4.3,22.83-19.62,19.62c-1.57,1.71-2.44,3.91-2.44,6.24,0,2.45.96,4.76,2.69,6.5.09.09.18.17.27.26-.44.99-.67,2.05-.67,3.14v6.51c0,4.97,4.82,9.01,10.75,9.01h93.7c5.93,0,10.75-4.04,10.75-9.01v-6.51c0-.99-.19-1.95-.55-2.86.36-.28.71-.58,1.04-.91,1.72-1.72,2.67-4,2.67-6.44ZM62.21,5.68c6.83,0,12.39,5.55,12.39,12.38s-5.56,12.38-12.39,12.38-12.38-5.55-12.38-12.38,5.56-12.38,12.38-12.38ZM117.08,97.07c-.4.32-.84.59-1.3.79-.54.25-1.12.41-1.72.48-.25.03-.51.05-.77.05-1.63,0-3.16-.63-4.32-1.79l-.11-.11-1.46-1.45-1.38-1.38-19.17-19.15v-17.89h-3v39.29l-22.21,2.26-21.06-2.14v-39.41h-3v17.89l-19.11,19.27-1.36,1.38-1.36,1.37-.44.44c-1.69,1.69-4.13,2.2-6.27,1.51-.51-.16-1-.39-1.46-.69-.36-.23-.7-.5-1.02-.82-.05-.05-.1-.1-.13-.15-1.08-1.15-1.68-2.65-1.68-4.23s.65-3.2,1.81-4.37l20.03-20.02,4.49-23.88.03-.28c0-4.39,3.57-7.97,7.97-7.97h46.27c4.4,0,7.97,3.58,7.97,7.97l4.52,24,19.77,19.92c1.15,1.16,1.79,2.69,1.79,4.32s-.64,3.17-1.79,4.32c-.17.17-.34.33-.53.47ZM116.24,102.49v6.51c0,3.32-3.48,6.01-7.75,6.01h-55.53c-4.28,0-7.75-2.69-7.75-6.01v-.88c0-.29.03-.58.09-.86.09-.53.28-1.03.54-1.5,1.05-1.9,3.34-3.32,6.12-3.6l9.68-.98,7.42-.75h.02l5.53-.57,9.24-.93,1.5-.16,1.5-.15,18.07-1.83,1.93,1.93c1.72,1.72,4.01,2.67,6.44,2.67.93,0,1.83-.14,2.7-.41.16.49.25.99.25,1.51ZM14.79,115.01c-4.27,0-7.75-2.69-7.75-6.01v-6.51c0-.5.08-1,.24-1.48,1.16.51,2.41.76,3.66.76,2.35,0,4.7-.89,6.5-2.69l2.15-2.16,17.99,1.82,1.5.15,1.5.15,8.09.82c-2.98,1.08-5.23,3.26-6.08,5.9-.16.48-.27.99-.33,1.5-.03.29-.05.57-.05.86v.88c0,2.3,1.04,4.41,2.74,6.01H14.79ZM86.85,78.75l15.32,15.3-15.32,1.56v-16.86ZM37.58,95.72l-15.27-1.55,15.27-15.4v16.95Z"/>
</svg>