<?xml version="1.0" encoding="UTF-8"?>
<svg id="Layer_1" xmlns="http://www.w3.org/2000/svg" version="1.1" viewBox="0 0 250 250">
  <!-- Generator: Adobe Illustrator 29.3.0, SVG Export Plug-In . SVG Version: 2.1.0 Build 146)  -->
  <defs>
    <style>
      .st0 {
        fill: #333;
      }
    </style>
  </defs>
  <path class="st0" d="M65.86,75.36c-24.88,0-48.08-7.38-63.67-20.24-3.21-2.65-3.66-7.4-1.01-10.61,2.65-3.21,7.4-3.66,10.61-1.01,12.74,10.51,32.95,16.79,54.07,16.79s35.06-5.89,55.09-17.5c21.08-12.36,38.11-19.53,62.65-19.53s48.08,7.38,63.67,20.24c3.21,2.65,3.66,7.4,1.02,10.61-2.65,3.21-7.4,3.66-10.61,1.01-12.74-10.51-32.95-16.79-54.07-16.79s-35.72,6.14-55.06,17.48c-18.48,10.71-35.92,19.55-62.68,19.55Z"/>
  <path class="st0" d="M65.86,125.81c-24.88,0-48.08-7.38-63.67-20.24-3.21-2.65-3.66-7.4-1.01-10.61,2.65-3.21,7.4-3.66,10.61-1.01,12.74,10.51,32.95,16.79,54.07,16.79,23.62,0,41.76-9.3,54.92-17.4,19.89-11.81,38.12-19.63,62.82-19.63s48.08,7.38,63.67,20.24c3.21,2.65,3.66,7.4,1.02,10.61-2.65,3.21-7.4,3.66-10.61,1.01-12.74-10.51-32.95-16.79-54.07-16.79s-36.87,6.68-55.02,17.46c-13.6,8.37-35.01,19.57-62.72,19.57Z"/>
  <path class="st0" d="M65.86,176.25c-24.88,0-48.09-7.38-63.67-20.24-3.21-2.65-3.66-7.4-1.01-10.61,2.65-3.21,7.4-3.66,10.61-1.01,12.74,10.51,32.95,16.79,54.07,16.79,23.57,0,41.73-9.3,54.93-17.4,19.81-11.81,38.03-19.63,62.81-19.63s48.08,7.38,63.67,20.24c3.21,2.65,3.66,7.4,1.01,10.61-2.65,3.21-7.4,3.66-10.61,1.01-12.74-10.52-32.95-16.79-54.07-16.79s-36.92,6.68-55.01,17.45c-13.63,8.37-35.07,19.58-62.73,19.58Z"/>
  <path class="st0" d="M65.86,226.71c-24.88,0-48.08-7.38-63.67-20.24-3.21-2.65-3.66-7.4-1.01-10.61,2.65-3.21,7.4-3.66,10.61-1.01,12.74,10.52,32.95,16.79,54.07,16.79s37.53-6.97,54.99-17.44c19.77-11.76,37.99-19.59,62.74-19.59s48.09,7.38,63.67,20.24c3.21,2.65,3.66,7.4,1.01,10.61-2.65,3.21-7.4,3.66-10.61,1.01-12.74-10.51-32.95-16.79-54.07-16.79s-36.9,6.68-55.02,17.45c-16.95,10.16-36.3,19.58-62.72,19.58Z"/>
</svg>